<?xml version="1.0" encoding="UTF-8" standalone="no"?>
<!DOCTYPE svg PUBLIC "-//W3C//DTD SVG 1.1//EN"
 "http://www.w3.org/Graphics/SVG/1.1/DTD/svg11.dtd">
<!-- Generated by graphviz version 2.43.0 (0)
 -->
<!-- Title: %3 Pages: 1 -->
<svg width="462pt" height="3989pt"
 viewBox="0.00 0.00 461.50 3989.00" xmlns="http://www.w3.org/2000/svg" xmlns:xlink="http://www.w3.org/1999/xlink">
<g id="graph0" class="graph" transform="scale(1 1) rotate(0) translate(4 3985)">
<title>%3</title>
<polygon fill="white" stroke="transparent" points="-4,4 -4,-3985 457.5,-3985 457.5,4 -4,4"/>
<!-- 0 -->
<g id="node1" class="node">
<title>0</title>
<text text-anchor="start" x="94" y="-3894.3" font-family="Times,serif" font-size="14.00">global.get 6</text>
<text text-anchor="start" x="94" y="-3879.3" font-family="Times,serif" font-size="14.00">local.set 10</text>
<text text-anchor="start" x="94" y="-3864.3" font-family="Times,serif" font-size="14.00">global.get 6</text>
<text text-anchor="start" x="94" y="-3849.3" font-family="Times,serif" font-size="14.00">i32.const 336</text>
<text text-anchor="start" x="94" y="-3834.3" font-family="Times,serif" font-size="14.00">i32.add</text>
<text text-anchor="start" x="94" y="-3819.3" font-family="Times,serif" font-size="14.00">global.set 6</text>
<text text-anchor="start" x="94" y="-3804.3" font-family="Times,serif" font-size="14.00">local.get 10</text>
<text text-anchor="start" x="94" y="-3789.3" font-family="Times,serif" font-size="14.00">local.tee 3</text>
<text text-anchor="start" x="94" y="-3774.3" font-family="Times,serif" font-size="14.00">i64.const 0</text>
<text text-anchor="start" x="94" y="-3759.3" font-family="Times,serif" font-size="14.00">i64.store {align 2, offset 0}</text>
<text text-anchor="start" x="94" y="-3744.3" font-family="Times,serif" font-size="14.00">local.get 3</text>
<text text-anchor="start" x="94" y="-3729.3" font-family="Times,serif" font-size="14.00">i64.const 0</text>
<text text-anchor="start" x="94" y="-3714.3" font-family="Times,serif" font-size="14.00">i64.store {align 2, offset 8}</text>
<text text-anchor="start" x="94" y="-3699.3" font-family="Times,serif" font-size="14.00">local.get 3</text>
<text text-anchor="start" x="94" y="-3684.3" font-family="Times,serif" font-size="14.00">i64.const 0</text>
<text text-anchor="start" x="94" y="-3669.3" font-family="Times,serif" font-size="14.00">i64.store {align 2, offset 16}</text>
<text text-anchor="start" x="94" y="-3654.3" font-family="Times,serif" font-size="14.00">local.get 3</text>
<text text-anchor="start" x="94" y="-3639.3" font-family="Times,serif" font-size="14.00">i64.const 0</text>
<text text-anchor="start" x="94" y="-3624.3" font-family="Times,serif" font-size="14.00">i64.store {align 2, offset 24}</text>
<text text-anchor="start" x="94" y="-3609.3" font-family="Times,serif" font-size="14.00">local.get 3</text>
<text text-anchor="start" x="94" y="-3594.3" font-family="Times,serif" font-size="14.00">i64.const 0</text>
<text text-anchor="start" x="94" y="-3579.3" font-family="Times,serif" font-size="14.00">i64.store {align 2, offset 32}</text>
<text text-anchor="start" x="94" y="-3564.3" font-family="Times,serif" font-size="14.00">local.get 3</text>
<text text-anchor="start" x="94" y="-3549.3" font-family="Times,serif" font-size="14.00">i64.const 0</text>
<text text-anchor="start" x="94" y="-3534.3" font-family="Times,serif" font-size="14.00">i64.store {align 2, offset 40}</text>
<text text-anchor="start" x="94" y="-3519.3" font-family="Times,serif" font-size="14.00">local.get 3</text>
<text text-anchor="start" x="94" y="-3504.3" font-family="Times,serif" font-size="14.00">i64.const 0</text>
<text text-anchor="start" x="94" y="-3489.3" font-family="Times,serif" font-size="14.00">i64.store {align 2, offset 48}</text>
<text text-anchor="start" x="94" y="-3474.3" font-family="Times,serif" font-size="14.00">local.get 3</text>
<text text-anchor="start" x="94" y="-3459.3" font-family="Times,serif" font-size="14.00">i32.const 0</text>
<text text-anchor="start" x="94" y="-3444.3" font-family="Times,serif" font-size="14.00">i32.store {align 2, offset 56}</text>
<text text-anchor="start" x="94" y="-3429.3" font-family="Times,serif" font-size="14.00">local.get 3</text>
<text text-anchor="start" x="94" y="-3414.3" font-family="Times,serif" font-size="14.00">i32.const 60</text>
<text text-anchor="start" x="94" y="-3399.3" font-family="Times,serif" font-size="14.00">i32.add</text>
<text text-anchor="start" x="94" y="-3384.3" font-family="Times,serif" font-size="14.00">local.tee 12</text>
<text text-anchor="start" x="94" y="-3369.3" font-family="Times,serif" font-size="14.00">i32.const 65536</text>
<text text-anchor="start" x="94" y="-3354.3" font-family="Times,serif" font-size="14.00">i32.store {align 2, offset 0}</text>
<text text-anchor="start" x="94" y="-3339.3" font-family="Times,serif" font-size="14.00">local.get 3</text>
<text text-anchor="start" x="94" y="-3324.3" font-family="Times,serif" font-size="14.00">i32.const 136</text>
<text text-anchor="start" x="94" y="-3309.3" font-family="Times,serif" font-size="14.00">i32.add</text>
<text text-anchor="start" x="94" y="-3294.3" font-family="Times,serif" font-size="14.00">local.tee 5</text>
<text text-anchor="start" x="94" y="-3279.3" font-family="Times,serif" font-size="14.00">i32.const 0</text>
<text text-anchor="start" x="94" y="-3264.3" font-family="Times,serif" font-size="14.00">i32.store {align 2, offset 0}</text>
<text text-anchor="start" x="94" y="-3249.3" font-family="Times,serif" font-size="14.00">local.get 3</text>
<text text-anchor="start" x="94" y="-3234.3" font-family="Times,serif" font-size="14.00">i32.const 64</text>
<text text-anchor="start" x="94" y="-3219.3" font-family="Times,serif" font-size="14.00">i32.add</text>
<text text-anchor="start" x="94" y="-3204.3" font-family="Times,serif" font-size="14.00">local.tee 9</text>
<text text-anchor="start" x="94" y="-3189.3" font-family="Times,serif" font-size="14.00">i32.const 0</text>
<text text-anchor="start" x="94" y="-3174.3" font-family="Times,serif" font-size="14.00">i32.store {align 2, offset 0}</text>
<text text-anchor="start" x="94" y="-3159.3" font-family="Times,serif" font-size="14.00">local.get 3</text>
<text text-anchor="start" x="94" y="-3144.3" font-family="Times,serif" font-size="14.00">i32.const 68</text>
<text text-anchor="start" x="94" y="-3129.3" font-family="Times,serif" font-size="14.00">i32.add</text>
<text text-anchor="start" x="94" y="-3114.3" font-family="Times,serif" font-size="14.00">local.tee 7</text>
<text text-anchor="start" x="94" y="-3099.3" font-family="Times,serif" font-size="14.00">i32.const 0</text>
<text text-anchor="start" x="94" y="-3084.3" font-family="Times,serif" font-size="14.00">i32.store {align 2, offset 0}</text>
<text text-anchor="start" x="94" y="-3069.3" font-family="Times,serif" font-size="14.00">local.get 3</text>
<text text-anchor="start" x="94" y="-3054.3" font-family="Times,serif" font-size="14.00">i32.const 140</text>
<text text-anchor="start" x="94" y="-3039.3" font-family="Times,serif" font-size="14.00">i32.add</text>
<text text-anchor="start" x="94" y="-3024.3" font-family="Times,serif" font-size="14.00">local.tee 8</text>
<text text-anchor="start" x="94" y="-3009.3" font-family="Times,serif" font-size="14.00">i32.const 0</text>
<text text-anchor="start" x="94" y="-2994.3" font-family="Times,serif" font-size="14.00">i32.store {align 2, offset 0}</text>
<text text-anchor="start" x="94" y="-2979.3" font-family="Times,serif" font-size="14.00">local.get 3</text>
<text text-anchor="start" x="94" y="-2964.3" font-family="Times,serif" font-size="14.00">local.get 0</text>
<text text-anchor="start" x="94" y="-2949.3" font-family="Times,serif" font-size="14.00">local.get 1</text>
<text text-anchor="start" x="94" y="-2934.3" font-family="Times,serif" font-size="14.00">i64.const 3</text>
<text text-anchor="start" x="94" y="-2919.3" font-family="Times,serif" font-size="14.00">i64.shr_u</text>
<text text-anchor="start" x="94" y="-2904.3" font-family="Times,serif" font-size="14.00">i32.wrap_i64</text>
<text text-anchor="start" x="94" y="-2889.3" font-family="Times,serif" font-size="14.00">local.tee 6</text>
<text text-anchor="start" x="94" y="-2874.3" font-family="Times,serif" font-size="14.00">call 37</text>
<text text-anchor="start" x="94" y="-2859.3" font-family="Times,serif" font-size="14.00">local.get 6</text>
<text text-anchor="start" x="94" y="-2844.3" font-family="Times,serif" font-size="14.00">i32.const 64</text>
<text text-anchor="start" x="94" y="-2829.3" font-family="Times,serif" font-size="14.00">i32.div_s</text>
<text text-anchor="start" x="94" y="-2814.3" font-family="Times,serif" font-size="14.00">i32.const 6</text>
<text text-anchor="start" x="94" y="-2799.3" font-family="Times,serif" font-size="14.00">i32.shl</text>
<text text-anchor="start" x="94" y="-2784.3" font-family="Times,serif" font-size="14.00">local.tee 4</text>
<text text-anchor="start" x="94" y="-2769.3" font-family="Times,serif" font-size="14.00">local.get 6</text>
<text text-anchor="start" x="94" y="-2754.3" font-family="Times,serif" font-size="14.00">i32.lt_s</text>
<text text-anchor="start" x="94" y="-2739.3" font-family="Times,serif" font-size="14.00">if []</text>
<polyline fill="none" stroke="black" points="197,-2733.5 92,-2733.5 "/>
<text text-anchor="start" x="139.5" y="-2719.3" font-family="Times,serif" font-size="14.00">T</text>
<polyline fill="none" stroke="black" points="303,-2733.5 197,-2733.5 197,-2712.5 "/>
<text text-anchor="start" x="245" y="-2719.3" font-family="Times,serif" font-size="14.00">F</text>
<polygon fill="none" stroke="black" points="90.5,-2712 90.5,-3909 303.5,-3909 303.5,-2712 90.5,-2712"/>
</g>
<!-- 3 -->
<g id="node2" class="node">
<title>3</title>
<text text-anchor="start" x="182" y="-2121.3" font-family="Times,serif" font-size="14.00">local.get 1</text>
<text text-anchor="start" x="182" y="-2106.3" font-family="Times,serif" font-size="14.00">i32.wrap_i64</text>
<text text-anchor="start" x="182" y="-2091.3" font-family="Times,serif" font-size="14.00">i32.const 7</text>
<text text-anchor="start" x="182" y="-2076.3" font-family="Times,serif" font-size="14.00">i32.and</text>
<text text-anchor="start" x="182" y="-2061.3" font-family="Times,serif" font-size="14.00">local.tee 6</text>
<text text-anchor="start" x="182" y="-2046.3" font-family="Times,serif" font-size="14.00">if []</text>
<polyline fill="none" stroke="black" points="228,-2040.5 180,-2040.5 "/>
<text text-anchor="start" x="199" y="-2026.3" font-family="Times,serif" font-size="14.00">T</text>
<polyline fill="none" stroke="black" points="277,-2040.5 228,-2040.5 228,-2019.5 "/>
<text text-anchor="start" x="247.5" y="-2026.3" font-family="Times,serif" font-size="14.00">F</text>
<polygon fill="none" stroke="black" points="178.5,-2019 178.5,-2136 277.5,-2136 277.5,-2019 178.5,-2019"/>
</g>
<!-- 0&#45;&gt;3 -->
<g id="edge3" class="edge">
<title>0:F&#45;&gt;3</title>
<path fill="none" stroke="black" d="M250,-2712C250,-2504 257.74,-2451.73 247,-2244 245.34,-2211.83 241.52,-2176.33 237.75,-2146.49"/>
<polygon fill="black" stroke="black" points="241.17,-2145.65 236.42,-2136.18 234.23,-2146.54 241.17,-2145.65"/>
</g>
<!-- 4 -->
<g id="node3" class="node">
<title>4</title>
<text text-anchor="start" x="21" y="-2661.8" font-family="Times,serif" font-size="14.00">loop []</text>
<text text-anchor="start" x="21" y="-2646.8" font-family="Times,serif" font-size="14.00">local.get 0</text>
<text text-anchor="start" x="21" y="-2631.8" font-family="Times,serif" font-size="14.00">local.get 4</text>
<text text-anchor="start" x="21" y="-2616.8" font-family="Times,serif" font-size="14.00">i32.add</text>
<text text-anchor="start" x="21" y="-2601.8" font-family="Times,serif" font-size="14.00">i32.load8_s {align 0, offset 0}</text>
<text text-anchor="start" x="21" y="-2586.8" font-family="Times,serif" font-size="14.00">local.set 11</text>
<text text-anchor="start" x="21" y="-2571.8" font-family="Times,serif" font-size="14.00">local.get 5</text>
<text text-anchor="start" x="21" y="-2556.8" font-family="Times,serif" font-size="14.00">local.get 5</text>
<text text-anchor="start" x="21" y="-2541.8" font-family="Times,serif" font-size="14.00">i32.load {align 2, offset 0}</text>
<text text-anchor="start" x="21" y="-2526.8" font-family="Times,serif" font-size="14.00">local.tee 13</text>
<text text-anchor="start" x="21" y="-2511.8" font-family="Times,serif" font-size="14.00">i32.const 1</text>
<text text-anchor="start" x="21" y="-2496.8" font-family="Times,serif" font-size="14.00">i32.add</text>
<text text-anchor="start" x="21" y="-2481.8" font-family="Times,serif" font-size="14.00">i32.store {align 2, offset 0}</text>
<text text-anchor="start" x="21" y="-2466.8" font-family="Times,serif" font-size="14.00">local.get 3</text>
<text text-anchor="start" x="21" y="-2451.8" font-family="Times,serif" font-size="14.00">i32.const 72</text>
<text text-anchor="start" x="21" y="-2436.8" font-family="Times,serif" font-size="14.00">i32.add</text>
<text text-anchor="start" x="21" y="-2421.8" font-family="Times,serif" font-size="14.00">local.get 13</text>
<text text-anchor="start" x="21" y="-2406.8" font-family="Times,serif" font-size="14.00">i32.add</text>
<text text-anchor="start" x="21" y="-2391.8" font-family="Times,serif" font-size="14.00">local.get 11</text>
<text text-anchor="start" x="21" y="-2376.8" font-family="Times,serif" font-size="14.00">i32.store8 {align 0, offset 0}</text>
<text text-anchor="start" x="21" y="-2361.8" font-family="Times,serif" font-size="14.00">local.get 4</text>
<text text-anchor="start" x="21" y="-2346.8" font-family="Times,serif" font-size="14.00">i32.const 1</text>
<text text-anchor="start" x="21" y="-2331.8" font-family="Times,serif" font-size="14.00">i32.add</text>
<text text-anchor="start" x="21" y="-2316.8" font-family="Times,serif" font-size="14.00">local.tee 4</text>
<text text-anchor="start" x="21" y="-2301.8" font-family="Times,serif" font-size="14.00">local.get 6</text>
<text text-anchor="start" x="21" y="-2286.8" font-family="Times,serif" font-size="14.00">i32.lt_s</text>
<text text-anchor="start" x="21" y="-2271.8" font-family="Times,serif" font-size="14.00">br_if 0</text>
<polyline fill="none" stroke="black" points="128,-2266 19,-2266 "/>
<text text-anchor="start" x="68.5" y="-2251.8" font-family="Times,serif" font-size="14.00">T</text>
<polyline fill="none" stroke="black" points="237,-2266 128,-2266 128,-2245 "/>
<text text-anchor="start" x="177.5" y="-2251.8" font-family="Times,serif" font-size="14.00">F</text>
<polygon fill="none" stroke="black" points="18,-2244 18,-2676 238,-2676 238,-2244 18,-2244"/>
</g>
<!-- 0&#45;&gt;4 -->
<g id="edge2" class="edge">
<title>0:T&#45;&gt;4</title>
<path fill="none" stroke="black" d="M144,-2712C144,-2703.6 143.91,-2695.05 143.74,-2686.42"/>
<polygon fill="black" stroke="black" points="147.24,-2686.17 143.51,-2676.25 140.24,-2686.33 147.24,-2686.17"/>
</g>
<!-- 7 -->
<g id="node5" class="node">
<title>7</title>
<text text-anchor="start" x="53" y="-1968.8" font-family="Times,serif" font-size="14.00">local.get 8</text>
<text text-anchor="start" x="53" y="-1953.8" font-family="Times,serif" font-size="14.00">local.get 6</text>
<text text-anchor="start" x="53" y="-1938.8" font-family="Times,serif" font-size="14.00">i32.store {align 2, offset 0}</text>
<text text-anchor="start" x="53" y="-1923.8" font-family="Times,serif" font-size="14.00">local.get 0</text>
<text text-anchor="start" x="53" y="-1908.8" font-family="Times,serif" font-size="14.00">local.get 4</text>
<text text-anchor="start" x="53" y="-1893.8" font-family="Times,serif" font-size="14.00">i32.add</text>
<text text-anchor="start" x="53" y="-1878.8" font-family="Times,serif" font-size="14.00">i32.load8_s {align 0, offset 0}</text>
<text text-anchor="start" x="53" y="-1863.8" font-family="Times,serif" font-size="14.00">local.set 0</text>
<text text-anchor="start" x="53" y="-1848.8" font-family="Times,serif" font-size="14.00">local.get 5</text>
<text text-anchor="start" x="53" y="-1833.8" font-family="Times,serif" font-size="14.00">local.get 5</text>
<text text-anchor="start" x="53" y="-1818.8" font-family="Times,serif" font-size="14.00">i32.load {align 2, offset 0}</text>
<text text-anchor="start" x="53" y="-1803.8" font-family="Times,serif" font-size="14.00">local.tee 4</text>
<text text-anchor="start" x="53" y="-1788.8" font-family="Times,serif" font-size="14.00">i32.const 1</text>
<text text-anchor="start" x="53" y="-1773.8" font-family="Times,serif" font-size="14.00">i32.add</text>
<text text-anchor="start" x="53" y="-1758.8" font-family="Times,serif" font-size="14.00">i32.store {align 2, offset 0}</text>
<text text-anchor="start" x="53" y="-1743.8" font-family="Times,serif" font-size="14.00">local.get 3</text>
<text text-anchor="start" x="53" y="-1728.8" font-family="Times,serif" font-size="14.00">i32.const 72</text>
<text text-anchor="start" x="53" y="-1713.8" font-family="Times,serif" font-size="14.00">i32.add</text>
<text text-anchor="start" x="53" y="-1698.8" font-family="Times,serif" font-size="14.00">local.get 4</text>
<text text-anchor="start" x="53" y="-1683.8" font-family="Times,serif" font-size="14.00">i32.add</text>
<text text-anchor="start" x="53" y="-1668.8" font-family="Times,serif" font-size="14.00">local.get 0</text>
<text text-anchor="start" x="53" y="-1653.8" font-family="Times,serif" font-size="14.00">i32.store8 {align 0, offset 0}</text>
<polygon fill="none" stroke="black" points="50,-1647 50,-1983 270,-1983 270,-1647 50,-1647"/>
</g>
<!-- 3&#45;&gt;7 -->
<g id="edge4" class="edge">
<title>3:T&#45;&gt;7</title>
<path fill="none" stroke="black" d="M204,-2019C204,-2010.58 203.63,-2002 202.97,-1993.37"/>
<polygon fill="black" stroke="black" points="206.44,-1992.86 202.05,-1983.22 199.46,-1993.49 206.44,-1992.86"/>
</g>
<!-- 8 -->
<g id="node6" class="node">
<title>8</title>
<text text-anchor="start" x="134" y="-1596.3" font-family="Times,serif" font-size="14.00">local.get 8</text>
<text text-anchor="start" x="134" y="-1581.3" font-family="Times,serif" font-size="14.00">i32.load {align 2, offset 0}</text>
<text text-anchor="start" x="134" y="-1566.3" font-family="Times,serif" font-size="14.00">local.tee 0</text>
<text text-anchor="start" x="134" y="-1551.3" font-family="Times,serif" font-size="14.00">if []</text>
<polyline fill="none" stroke="black" points="229,-1545.5 132,-1545.5 "/>
<text text-anchor="start" x="175.5" y="-1531.3" font-family="Times,serif" font-size="14.00">T</text>
<polyline fill="none" stroke="black" points="327,-1545.5 229,-1545.5 229,-1524.5 "/>
<text text-anchor="start" x="273" y="-1531.3" font-family="Times,serif" font-size="14.00">F</text>
<polygon fill="none" stroke="black" points="130.5,-1524 130.5,-1611 327.5,-1611 327.5,-1524 130.5,-1524"/>
</g>
<!-- 3&#45;&gt;8 -->
<g id="edge5" class="edge">
<title>3:F&#45;&gt;8</title>
<path fill="none" stroke="black" d="M253,-2019C253,-1999.26 272.93,-2001.78 279,-1983 324.95,-1840.91 320.78,-1790.37 279,-1647 276.32,-1637.79 272.19,-1628.63 267.43,-1619.99"/>
<polygon fill="black" stroke="black" points="270.35,-1618.05 262.28,-1611.2 264.31,-1621.59 270.35,-1618.05"/>
</g>
<!-- 4&#45;&gt;4 -->
<g id="edge6" class="edge">
<title>4:T&#45;&gt;4</title>
<path fill="none" stroke="black" d="M66.36,-2244.9C27.22,-2187.97 0,-2196.46 0,-2357.5 0,-2399.92 5.31,-2431.75 13.95,-2454.59"/>
<polygon fill="black" stroke="black" points="10.74,-2455.98 17.85,-2463.84 17.19,-2453.26 10.74,-2455.98"/>
</g>
<!-- 6 -->
<g id="node4" class="node">
<title>6</title>
<text text-anchor="start" x="153" y="-2193.8" font-family="Times,serif" font-size="14.00">local.get 6</text>
<text text-anchor="start" x="153" y="-2178.8" font-family="Times,serif" font-size="14.00">local.set 4</text>
<polygon fill="none" stroke="black" points="149.5,-2172 149.5,-2208 230.5,-2208 230.5,-2172 149.5,-2172"/>
</g>
<!-- 4&#45;&gt;6 -->
<g id="edge7" class="edge">
<title>4:F&#45;&gt;6</title>
<path fill="none" stroke="black" d="M183,-2244C183,-2235.52 183.89,-2226.33 185.04,-2218.03"/>
<polygon fill="black" stroke="black" points="188.5,-2218.53 186.58,-2208.11 181.59,-2217.45 188.5,-2218.53"/>
</g>
<!-- 6&#45;&gt;3 -->
<g id="edge8" class="edge">
<title>6&#45;&gt;3</title>
<path fill="none" stroke="black" d="M195.94,-2171.73C198.44,-2164.45 201.53,-2155.46 204.8,-2145.96"/>
<polygon fill="black" stroke="black" points="208.17,-2146.93 208.11,-2136.34 201.55,-2144.66 208.17,-2146.93"/>
</g>
<!-- 7&#45;&gt;8 -->
<g id="edge9" class="edge">
<title>7&#45;&gt;8</title>
<path fill="none" stroke="black" d="M206.98,-1646.85C209.56,-1637.68 212.03,-1628.89 214.32,-1620.72"/>
<polygon fill="black" stroke="black" points="217.69,-1621.67 217.03,-1611.1 210.95,-1619.78 217.69,-1621.67"/>
</g>
<!-- 9 -->
<g id="node7" class="node">
<title>9</title>
<text text-anchor="start" x="3" y="-1473.8" font-family="Times,serif" font-size="14.00">local.get 3</text>
<text text-anchor="start" x="3" y="-1458.8" font-family="Times,serif" font-size="14.00">local.get 5</text>
<text text-anchor="start" x="3" y="-1443.8" font-family="Times,serif" font-size="14.00">i32.load {align 2, offset 0}</text>
<text text-anchor="start" x="3" y="-1428.8" font-family="Times,serif" font-size="14.00">i32.add</text>
<text text-anchor="start" x="3" y="-1413.8" font-family="Times,serif" font-size="14.00">i32.const 71</text>
<text text-anchor="start" x="3" y="-1398.8" font-family="Times,serif" font-size="14.00">i32.add</text>
<text text-anchor="start" x="3" y="-1383.8" font-family="Times,serif" font-size="14.00">local.tee 4</text>
<text text-anchor="start" x="3" y="-1368.8" font-family="Times,serif" font-size="14.00">local.get 4</text>
<text text-anchor="start" x="3" y="-1353.8" font-family="Times,serif" font-size="14.00">i32.load8_u {align 0, offset 0}</text>
<text text-anchor="start" x="3" y="-1338.8" font-family="Times,serif" font-size="14.00">i32.const 1</text>
<text text-anchor="start" x="3" y="-1323.8" font-family="Times,serif" font-size="14.00">local.get 0</text>
<text text-anchor="start" x="3" y="-1308.8" font-family="Times,serif" font-size="14.00">i32.shl</text>
<text text-anchor="start" x="3" y="-1293.8" font-family="Times,serif" font-size="14.00">i32.const &#45;1</text>
<text text-anchor="start" x="3" y="-1278.8" font-family="Times,serif" font-size="14.00">i32.add</text>
<text text-anchor="start" x="3" y="-1263.8" font-family="Times,serif" font-size="14.00">i32.const 8</text>
<text text-anchor="start" x="3" y="-1248.8" font-family="Times,serif" font-size="14.00">local.get 0</text>
<text text-anchor="start" x="3" y="-1233.8" font-family="Times,serif" font-size="14.00">i32.sub</text>
<text text-anchor="start" x="3" y="-1218.8" font-family="Times,serif" font-size="14.00">i32.shl</text>
<text text-anchor="start" x="3" y="-1203.8" font-family="Times,serif" font-size="14.00">i32.and</text>
<text text-anchor="start" x="3" y="-1188.8" font-family="Times,serif" font-size="14.00">i32.store8 {align 0, offset 0}</text>
<text text-anchor="start" x="3" y="-1173.8" font-family="Times,serif" font-size="14.00">local.get 3</text>
<text text-anchor="start" x="3" y="-1158.8" font-family="Times,serif" font-size="14.00">local.get 5</text>
<text text-anchor="start" x="3" y="-1143.8" font-family="Times,serif" font-size="14.00">i32.load {align 2, offset 0}</text>
<text text-anchor="start" x="3" y="-1128.8" font-family="Times,serif" font-size="14.00">i32.add</text>
<text text-anchor="start" x="3" y="-1113.8" font-family="Times,serif" font-size="14.00">i32.const 71</text>
<text text-anchor="start" x="3" y="-1098.8" font-family="Times,serif" font-size="14.00">i32.add</text>
<text text-anchor="start" x="3" y="-1083.8" font-family="Times,serif" font-size="14.00">local.tee 0</text>
<text text-anchor="start" x="3" y="-1068.8" font-family="Times,serif" font-size="14.00">local.get 0</text>
<text text-anchor="start" x="3" y="-1053.8" font-family="Times,serif" font-size="14.00">i32.load8_u {align 0, offset 0}</text>
<text text-anchor="start" x="3" y="-1038.8" font-family="Times,serif" font-size="14.00">i32.const 1</text>
<text text-anchor="start" x="3" y="-1023.8" font-family="Times,serif" font-size="14.00">i32.const 7</text>
<text text-anchor="start" x="3" y="-1008.8" font-family="Times,serif" font-size="14.00">local.get 8</text>
<text text-anchor="start" x="3" y="-993.8" font-family="Times,serif" font-size="14.00">i32.load {align 2, offset 0}</text>
<text text-anchor="start" x="3" y="-978.8" font-family="Times,serif" font-size="14.00">i32.sub</text>
<text text-anchor="start" x="3" y="-963.8" font-family="Times,serif" font-size="14.00">i32.shl</text>
<text text-anchor="start" x="3" y="-948.8" font-family="Times,serif" font-size="14.00">i32.xor</text>
<text text-anchor="start" x="3" y="-933.8" font-family="Times,serif" font-size="14.00">i32.store8 {align 0, offset 0}</text>
<text text-anchor="start" x="3" y="-918.8" font-family="Times,serif" font-size="14.00">local.get 8</text>
<text text-anchor="start" x="3" y="-903.8" font-family="Times,serif" font-size="14.00">i32.const 0</text>
<text text-anchor="start" x="3" y="-888.8" font-family="Times,serif" font-size="14.00">i32.store {align 2, offset 0}</text>
<polygon fill="none" stroke="black" points="0,-882 0,-1488 222,-1488 222,-882 0,-882"/>
</g>
<!-- 8&#45;&gt;9 -->
<g id="edge10" class="edge">
<title>8:T&#45;&gt;9</title>
<path fill="none" stroke="black" d="M180,-1524C180,-1515.5 179.79,-1506.9 179.39,-1498.24"/>
<polygon fill="black" stroke="black" points="182.87,-1497.85 178.83,-1488.05 175.88,-1498.23 182.87,-1497.85"/>
</g>
<!-- 11 -->
<g id="node9" class="node">
<title>11</title>
<text text-anchor="start" x="244" y="-1278.8" font-family="Times,serif" font-size="14.00">local.get 5</text>
<text text-anchor="start" x="244" y="-1263.8" font-family="Times,serif" font-size="14.00">local.get 5</text>
<text text-anchor="start" x="244" y="-1248.8" font-family="Times,serif" font-size="14.00">i32.load {align 2, offset 0}</text>
<text text-anchor="start" x="244" y="-1233.8" font-family="Times,serif" font-size="14.00">local.tee 0</text>
<text text-anchor="start" x="244" y="-1218.8" font-family="Times,serif" font-size="14.00">i32.const 1</text>
<text text-anchor="start" x="244" y="-1203.8" font-family="Times,serif" font-size="14.00">i32.add</text>
<text text-anchor="start" x="244" y="-1188.8" font-family="Times,serif" font-size="14.00">i32.store {align 2, offset 0}</text>
<text text-anchor="start" x="244" y="-1173.8" font-family="Times,serif" font-size="14.00">local.get 3</text>
<text text-anchor="start" x="244" y="-1158.8" font-family="Times,serif" font-size="14.00">i32.const 72</text>
<text text-anchor="start" x="244" y="-1143.8" font-family="Times,serif" font-size="14.00">i32.add</text>
<text text-anchor="start" x="244" y="-1128.8" font-family="Times,serif" font-size="14.00">local.get 0</text>
<text text-anchor="start" x="244" y="-1113.8" font-family="Times,serif" font-size="14.00">i32.add</text>
<text text-anchor="start" x="244" y="-1098.8" font-family="Times,serif" font-size="14.00">i32.const &#45;128</text>
<text text-anchor="start" x="244" y="-1083.8" font-family="Times,serif" font-size="14.00">i32.store8 {align 0, offset 0}</text>
<polygon fill="none" stroke="black" points="240.5,-1077 240.5,-1293 453.5,-1293 453.5,-1077 240.5,-1077"/>
</g>
<!-- 8&#45;&gt;11 -->
<g id="edge11" class="edge">
<title>8:F&#45;&gt;11</title>
<path fill="none" stroke="black" d="M278,-1524C278,-1449.52 294.28,-1367.63 311.03,-1303.12"/>
<polygon fill="black" stroke="black" points="314.45,-1303.88 313.61,-1293.32 307.68,-1302.1 314.45,-1303.88"/>
</g>
<!-- 10 -->
<g id="node8" class="node">
<title>10</title>
<text text-anchor="start" x="134" y="-831.8" font-family="Times,serif" font-size="14.00">local.get 5</text>
<text text-anchor="start" x="134" y="-816.8" font-family="Times,serif" font-size="14.00">i32.load {align 2, offset 0}</text>
<text text-anchor="start" x="134" y="-801.8" font-family="Times,serif" font-size="14.00">local.tee 0</text>
<text text-anchor="start" x="134" y="-786.8" font-family="Times,serif" font-size="14.00">i32.const 56</text>
<text text-anchor="start" x="134" y="-771.8" font-family="Times,serif" font-size="14.00">i32.gt_s</text>
<text text-anchor="start" x="134" y="-756.8" font-family="Times,serif" font-size="14.00">if []</text>
<polygon fill="none" stroke="black" points="130.5,-750 130.5,-846 327.5,-846 327.5,-750 130.5,-750"/>
</g>
<!-- 9&#45;&gt;10 -->
<g id="edge12" class="edge">
<title>9&#45;&gt;10</title>
<path fill="none" stroke="black" d="M203.69,-881.59C206.49,-872.46 209.13,-863.82 211.59,-855.81"/>
<polygon fill="black" stroke="black" points="215,-856.61 214.59,-846.02 208.31,-854.56 215,-856.61"/>
</g>
<!-- 14 -->
<g id="node10" class="node">
<title>14</title>
<text text-anchor="start" x="185" y="-699.3" font-family="Times,serif" font-size="14.00">local.get 0</text>
<text text-anchor="start" x="185" y="-684.3" font-family="Times,serif" font-size="14.00">i32.const 64</text>
<text text-anchor="start" x="185" y="-669.3" font-family="Times,serif" font-size="14.00">i32.lt_s</text>
<text text-anchor="start" x="185" y="-654.3" font-family="Times,serif" font-size="14.00">if []</text>
<polyline fill="none" stroke="black" points="229,-648.5 183,-648.5 "/>
<text text-anchor="start" x="201" y="-634.3" font-family="Times,serif" font-size="14.00">T</text>
<polyline fill="none" stroke="black" points="275,-648.5 229,-648.5 229,-627.5 "/>
<text text-anchor="start" x="247" y="-634.3" font-family="Times,serif" font-size="14.00">F</text>
<polygon fill="none" stroke="black" points="182,-627 182,-714 276,-714 276,-627 182,-627"/>
</g>
<!-- 10&#45;&gt;14 -->
<g id="edge13" class="edge">
<title>10:T&#45;&gt;14</title>
<path fill="none" stroke="black" d="M229,-749.91C229,-741.6 229,-732.91 229,-724.45"/>
<polygon fill="black" stroke="black" points="232.5,-724.3 229,-714.3 225.5,-724.3 232.5,-724.3"/>
</g>
<!-- 11&#45;&gt;10 -->
<g id="edge14" class="edge">
<title>11&#45;&gt;10</title>
<path fill="none" stroke="black" d="M314.13,-1076.76C292.18,-1005.14 264.18,-913.79 246.42,-855.83"/>
<polygon fill="black" stroke="black" points="249.72,-854.65 243.44,-846.11 243.02,-856.7 249.72,-854.65"/>
</g>
<!-- 17 -->
<g id="node11" class="node">
<title>17</title>
<text text-anchor="start" x="157" y="-228.3" font-family="Times,serif" font-size="14.00">local.get 3</text>
<text text-anchor="start" x="157" y="-213.3" font-family="Times,serif" font-size="14.00">local.get 3</text>
<text text-anchor="start" x="157" y="-198.3" font-family="Times,serif" font-size="14.00">i32.const 72</text>
<text text-anchor="start" x="157" y="-183.3" font-family="Times,serif" font-size="14.00">i32.add</text>
<text text-anchor="start" x="157" y="-168.3" font-family="Times,serif" font-size="14.00">i32.const 64</text>
<text text-anchor="start" x="157" y="-153.3" font-family="Times,serif" font-size="14.00">call 37</text>
<text text-anchor="start" x="157" y="-138.3" font-family="Times,serif" font-size="14.00">local.get 5</text>
<text text-anchor="start" x="157" y="-123.3" font-family="Times,serif" font-size="14.00">i32.const 0</text>
<text text-anchor="start" x="157" y="-108.3" font-family="Times,serif" font-size="14.00">i32.store {align 2, offset 0}</text>
<text text-anchor="start" x="157" y="-93.3" font-family="Times,serif" font-size="14.00">i32.const 0</text>
<text text-anchor="start" x="157" y="-78.3" font-family="Times,serif" font-size="14.00">local.set 0</text>
<polygon fill="none" stroke="black" points="154,-72 154,-243 358,-243 358,-72 154,-72"/>
</g>
<!-- 14&#45;&gt;17 -->
<g id="edge16" class="edge">
<title>14:F&#45;&gt;17</title>
<path fill="none" stroke="black" d="M252,-627C252,-607.26 271.93,-609.78 278,-591 320.66,-459.06 290.5,-417.1 278,-279 277.24,-270.63 276.19,-261.97 274.96,-253.31"/>
<polygon fill="black" stroke="black" points="278.38,-252.53 273.44,-243.16 271.46,-253.57 278.38,-252.53"/>
</g>
<!-- 18 -->
<g id="node12" class="node">
<title>18</title>
<text text-anchor="start" x="59" y="-576.8" font-family="Times,serif" font-size="14.00">loop []</text>
<text text-anchor="start" x="59" y="-561.8" font-family="Times,serif" font-size="14.00">local.get 5</text>
<text text-anchor="start" x="59" y="-546.8" font-family="Times,serif" font-size="14.00">local.get 0</text>
<text text-anchor="start" x="59" y="-531.8" font-family="Times,serif" font-size="14.00">i32.const 1</text>
<text text-anchor="start" x="59" y="-516.8" font-family="Times,serif" font-size="14.00">i32.add</text>
<text text-anchor="start" x="59" y="-501.8" font-family="Times,serif" font-size="14.00">i32.store {align 2, offset 0}</text>
<text text-anchor="start" x="59" y="-486.8" font-family="Times,serif" font-size="14.00">local.get 3</text>
<text text-anchor="start" x="59" y="-471.8" font-family="Times,serif" font-size="14.00">i32.const 72</text>
<text text-anchor="start" x="59" y="-456.8" font-family="Times,serif" font-size="14.00">i32.add</text>
<text text-anchor="start" x="59" y="-441.8" font-family="Times,serif" font-size="14.00">local.get 0</text>
<text text-anchor="start" x="59" y="-426.8" font-family="Times,serif" font-size="14.00">i32.add</text>
<text text-anchor="start" x="59" y="-411.8" font-family="Times,serif" font-size="14.00">i32.const 0</text>
<text text-anchor="start" x="59" y="-396.8" font-family="Times,serif" font-size="14.00">i32.store8 {align 0, offset 0}</text>
<text text-anchor="start" x="59" y="-381.8" font-family="Times,serif" font-size="14.00">local.get 5</text>
<text text-anchor="start" x="59" y="-366.8" font-family="Times,serif" font-size="14.00">i32.load {align 2, offset 0}</text>
<text text-anchor="start" x="59" y="-351.8" font-family="Times,serif" font-size="14.00">local.tee 0</text>
<text text-anchor="start" x="59" y="-336.8" font-family="Times,serif" font-size="14.00">i32.const 64</text>
<text text-anchor="start" x="59" y="-321.8" font-family="Times,serif" font-size="14.00">i32.lt_s</text>
<text text-anchor="start" x="59" y="-306.8" font-family="Times,serif" font-size="14.00">br_if 0</text>
<polyline fill="none" stroke="black" points="162,-301 57,-301 "/>
<text text-anchor="start" x="104.5" y="-286.8" font-family="Times,serif" font-size="14.00">T</text>
<polyline fill="none" stroke="black" points="268,-301 162,-301 162,-280 "/>
<text text-anchor="start" x="210" y="-286.8" font-family="Times,serif" font-size="14.00">F</text>
<polygon fill="none" stroke="black" points="55.5,-279 55.5,-591 268.5,-591 268.5,-279 55.5,-279"/>
</g>
<!-- 14&#45;&gt;18 -->
<g id="edge15" class="edge">
<title>14:T&#45;&gt;18</title>
<path fill="none" stroke="black" d="M206,-627C206,-618.56 205.59,-609.97 204.84,-601.32"/>
<polygon fill="black" stroke="black" points="208.3,-600.76 203.82,-591.16 201.34,-601.46 208.3,-600.76"/>
</g>
<!-- end -->
<g id="node14" class="node">
<title>end</title>
<ellipse fill="none" stroke="black" cx="256" cy="-18" rx="27.9" ry="18"/>
<text text-anchor="middle" x="256" y="-14.3" font-family="Times,serif" font-size="14.00">end</text>
</g>
<!-- 17&#45;&gt;end -->
<g id="edge17" class="edge">
<title>17&#45;&gt;end</title>
<path fill="none" stroke="black" d="M256,-71.77C256,-62.6 256,-53.84 256,-46.18"/>
<polygon fill="black" stroke="black" points="259.5,-46.15 256,-36.15 252.5,-46.15 259.5,-46.15"/>
</g>
<!-- 18&#45;&gt;17 -->
<g id="edge19" class="edge">
<title>18:F&#45;&gt;17</title>
<path fill="none" stroke="black" d="M215,-279C215,-270.5 215.93,-261.84 217.5,-253.25"/>
<polygon fill="black" stroke="black" points="220.97,-253.73 219.62,-243.22 214.13,-252.28 220.97,-253.73"/>
</g>
<!-- 18&#45;&gt;18 -->
<g id="edge18" class="edge">
<title>18:T&#45;&gt;18</title>
<path fill="none" stroke="black" d="M101.36,-279.73C63.87,-232.01 37.5,-239.69 37.5,-362.5 37.5,-394.45 42.44,-418.61 50.51,-436.03"/>
<polygon fill="black" stroke="black" points="47.51,-437.84 55.3,-445.01 53.68,-434.54 47.51,-437.84"/>
</g>
<!-- start -->
<g id="node13" class="node">
<title>start</title>
<ellipse fill="none" stroke="black" cx="197" cy="-3963" rx="33.29" ry="18"/>
<text text-anchor="middle" x="197" y="-3959.3" font-family="Times,serif" font-size="14.00">start</text>
</g>
<!-- start&#45;&gt;0 -->
<g id="edge1" class="edge">
<title>start&#45;&gt;0</title>
<path fill="none" stroke="black" d="M197,-3944.94C197,-3938.18 197,-3929.56 197,-3919.36"/>
<polygon fill="black" stroke="black" points="200.5,-3919.1 197,-3909.1 193.5,-3919.1 200.5,-3919.1"/>
</g>
</g>
</svg>
