<?xml version="1.0" encoding="UTF-8" standalone="no"?>
<!DOCTYPE svg PUBLIC "-//W3C//DTD SVG 1.1//EN"
 "http://www.w3.org/Graphics/SVG/1.1/DTD/svg11.dtd">
<!-- Generated by graphviz version 2.43.0 (0)
 -->
<!-- Title: G Pages: 1 -->
<svg width="1594pt" height="1145pt"
 viewBox="0.00 0.00 1594.08 1145.00" xmlns="http://www.w3.org/2000/svg" xmlns:xlink="http://www.w3.org/1999/xlink">
<g id="graph0" class="graph" transform="scale(1 1) rotate(0) translate(4 1141)">
<title>G</title>
<polygon fill="white" stroke="transparent" points="-4,4 -4,-1141 1590.08,-1141 1590.08,4 -4,4"/>
<!-- 0 -->
<g id="node1" class="node">
<title>0</title>
<ellipse fill="none" stroke="black" cx="307.03" cy="-72" rx="36" ry="18"/>
<text text-anchor="middle" x="307.03" y="-68.3" font-family="Times,serif" font-size="14.00">abort</text>
</g>
<!-- 1 -->
<g id="node2" class="node">
<title>1</title>
<ellipse fill="none" stroke="black" cx="1440.49" cy="-646" rx="84.49" ry="18"/>
<text text-anchor="middle" x="1440.49" y="-642.3" font-family="Times,serif" font-size="14.00">enlargeMemory</text>
</g>
<!-- 2 -->
<g id="node3" class="node">
<title>2</title>
<ellipse fill="none" stroke="black" cx="1440.49" cy="-592" rx="87.18" ry="18"/>
<text text-anchor="middle" x="1440.49" y="-588.3" font-family="Times,serif" font-size="14.00">getTotalMemory</text>
</g>
<!-- 3 -->
<g id="node4" class="node">
<title>3</title>
<ellipse fill="none" stroke="black" cx="1440.49" cy="-538" rx="145.67" ry="18"/>
<text text-anchor="middle" x="1440.49" y="-534.3" font-family="Times,serif" font-size="14.00">abortOnCannotGrowMemory</text>
</g>
<!-- 4 -->
<g id="node5" class="node">
<title>4</title>
<ellipse fill="none" stroke="black" cx="499.66" cy="-380" rx="50.89" ry="18"/>
<text text-anchor="middle" x="499.66" y="-376.3" font-family="Times,serif" font-size="14.00">_gmtime</text>
</g>
<!-- 5 -->
<g id="node6" class="node">
<title>5</title>
<ellipse fill="none" stroke="black" cx="307.03" cy="-980" rx="42.49" ry="18"/>
<text text-anchor="middle" x="307.03" y="-976.3" font-family="Times,serif" font-size="14.00">___lock</text>
</g>
<!-- 6 -->
<g id="node7" class="node">
<title>6</title>
<ellipse fill="none" stroke="black" cx="890.13" cy="-980" rx="61.19" ry="18"/>
<text text-anchor="middle" x="890.13" y="-976.3" font-family="Times,serif" font-size="14.00">___syscall6</text>
</g>
<!-- 7 -->
<g id="node8" class="node">
<title>7</title>
<ellipse fill="none" stroke="black" cx="1440.49" cy="-484" rx="66.89" ry="18"/>
<text text-anchor="middle" x="1440.49" y="-480.3" font-family="Times,serif" font-size="14.00">___setErrNo</text>
</g>
<!-- 8 -->
<g id="node9" class="node">
<title>8</title>
<ellipse fill="none" stroke="black" cx="307.03" cy="-926" rx="53.89" ry="18"/>
<text text-anchor="middle" x="307.03" y="-922.3" font-family="Times,serif" font-size="14.00">___unlock</text>
</g>
<!-- 9 -->
<g id="node10" class="node">
<title>9</title>
<ellipse fill="none" stroke="black" cx="499.66" cy="-326" rx="39.79" ry="18"/>
<text text-anchor="middle" x="499.66" y="-322.3" font-family="Times,serif" font-size="14.00">_ftime</text>
</g>
<!-- 10 -->
<g id="node11" class="node">
<title>10</title>
<ellipse fill="none" stroke="black" cx="1128.92" cy="-642" rx="129.98" ry="18"/>
<text text-anchor="middle" x="1128.92" y="-638.3" font-family="Times,serif" font-size="14.00">_emscripten_memcpy_big</text>
</g>
<!-- 11 -->
<g id="node12" class="node">
<title>11</title>
<ellipse fill="none" stroke="black" cx="709.85" cy="-818" rx="66.89" ry="18"/>
<text text-anchor="middle" x="709.85" y="-814.3" font-family="Times,serif" font-size="14.00">___syscall54</text>
</g>
<!-- 12 -->
<g id="node13" class="node">
<title>12</title>
<ellipse fill="none" stroke="black" cx="890.13" cy="-872" rx="72.59" ry="18"/>
<text text-anchor="middle" x="890.13" y="-868.3" font-family="Times,serif" font-size="14.00">___syscall140</text>
</g>
<!-- 13 -->
<g id="node14" class="node">
<title>13</title>
<ellipse fill="none" stroke="black" cx="499.66" cy="-272" rx="66.89" ry="18"/>
<text text-anchor="middle" x="499.66" y="-268.3" font-family="Times,serif" font-size="14.00">___syscall20</text>
</g>
<!-- 14 -->
<g id="node15" class="node">
<title>14</title>
<ellipse fill="none" stroke="black" cx="709.85" cy="-126" rx="71.49" ry="18"/>
<text text-anchor="middle" x="709.85" y="-122.3" font-family="Times,serif" font-size="14.00">___assert_fail</text>
</g>
<!-- 15 -->
<g id="node16" class="node">
<title>15</title>
<ellipse fill="none" stroke="black" cx="890.13" cy="-818" rx="72.59" ry="18"/>
<text text-anchor="middle" x="890.13" y="-814.3" font-family="Times,serif" font-size="14.00">___syscall146</text>
</g>
<!-- 23 -->
<g id="node17" class="node">
<title>23</title>
<ellipse fill="none" stroke="black" cx="108.54" cy="-1065" rx="27" ry="18"/>
<text text-anchor="middle" x="108.54" y="-1061.3" font-family="Times,serif" font-size="14.00">f23</text>
</g>
<!-- 36 -->
<g id="node30" class="node">
<title>36</title>
<ellipse fill="none" stroke="black" cx="307.03" cy="-1065" rx="27" ry="18"/>
<text text-anchor="middle" x="307.03" y="-1061.3" font-family="Times,serif" font-size="14.00">f36</text>
</g>
<!-- 23&#45;&gt;36 -->
<g id="edge1" class="edge">
<title>23&#45;&gt;36</title>
<path fill="none" stroke="black" d="M135.63,-1065C169.98,-1065 230.56,-1065 269.47,-1065"/>
<polygon fill="black" stroke="black" points="269.83,-1068.5 279.83,-1065 269.83,-1061.5 269.83,-1068.5"/>
</g>
<!-- 24 -->
<g id="node18" class="node">
<title>24</title>
<ellipse fill="none" stroke="black" cx="499.66" cy="-542" rx="102.88" ry="18"/>
<text text-anchor="middle" x="499.66" y="-538.3" font-family="Times,serif" font-size="14.00">_cryptonight_create</text>
</g>
<!-- 56 -->
<g id="node50" class="node">
<title>56</title>
<ellipse fill="none" stroke="black" cx="709.85" cy="-542" rx="27" ry="18"/>
<text text-anchor="middle" x="709.85" y="-538.3" font-family="Times,serif" font-size="14.00">f56</text>
</g>
<!-- 24&#45;&gt;56 -->
<g id="edge2" class="edge">
<title>24&#45;&gt;56</title>
<path fill="none" stroke="black" d="M602.62,-542C627.65,-542 652.85,-542 672.42,-542"/>
<polygon fill="black" stroke="black" points="672.68,-545.5 682.68,-542 672.68,-538.5 672.68,-545.5"/>
</g>
<!-- 25 -->
<g id="node19" class="node">
<title>25</title>
<ellipse fill="none" stroke="black" cx="108.54" cy="-180" rx="108.58" ry="18"/>
<text text-anchor="middle" x="108.54" y="-176.3" font-family="Times,serif" font-size="14.00">_cryptonight_destroy</text>
</g>
<!-- 52 -->
<g id="node46" class="node">
<title>52</title>
<ellipse fill="none" stroke="black" cx="307.03" cy="-157" rx="27" ry="18"/>
<text text-anchor="middle" x="307.03" y="-153.3" font-family="Times,serif" font-size="14.00">f52</text>
</g>
<!-- 25&#45;&gt;52 -->
<g id="edge3" class="edge">
<title>25&#45;&gt;52</title>
<path fill="none" stroke="black" d="M197.73,-169.68C223.27,-166.69 249.72,-163.59 270.1,-161.21"/>
<polygon fill="black" stroke="black" points="270.63,-164.67 280.16,-160.03 269.82,-157.71 270.63,-164.67"/>
</g>
<!-- 55 -->
<g id="node49" class="node">
<title>55</title>
<ellipse fill="none" stroke="black" cx="499.66" cy="-180" rx="33.6" ry="18"/>
<text text-anchor="middle" x="499.66" y="-176.3" font-family="Times,serif" font-size="14.00">_free</text>
</g>
<!-- 25&#45;&gt;55 -->
<g id="edge4" class="edge">
<title>25&#45;&gt;55</title>
<path fill="none" stroke="black" d="M215.36,-183.28C228.07,-183.58 240.87,-183.83 253.08,-184 301.03,-184.67 313.02,-184.7 360.97,-184 392.64,-183.54 428.38,-182.49 455.52,-181.57"/>
<polygon fill="black" stroke="black" points="455.97,-185.06 465.84,-181.22 455.73,-178.07 455.97,-185.06"/>
</g>
<!-- 26 -->
<g id="node20" class="node">
<title>26</title>
<ellipse fill="none" stroke="black" cx="108.54" cy="-503" rx="95.58" ry="18"/>
<text text-anchor="middle" x="108.54" y="-499.3" font-family="Times,serif" font-size="14.00">_cryptonight_hash</text>
</g>
<!-- 30 -->
<g id="node24" class="node">
<title>30</title>
<ellipse fill="none" stroke="black" cx="307.03" cy="-503" rx="27" ry="18"/>
<text text-anchor="middle" x="307.03" y="-499.3" font-family="Times,serif" font-size="14.00">f30</text>
</g>
<!-- 26&#45;&gt;30 -->
<g id="edge5" class="edge">
<title>26&#45;&gt;30</title>
<path fill="none" stroke="black" d="M204.33,-503C227.57,-503 251.07,-503 269.62,-503"/>
<polygon fill="black" stroke="black" points="269.65,-506.5 279.65,-503 269.65,-499.5 269.65,-506.5"/>
</g>
<!-- 31 -->
<g id="node25" class="node">
<title>31</title>
<ellipse fill="none" stroke="black" cx="307.03" cy="-449" rx="27" ry="18"/>
<text text-anchor="middle" x="307.03" y="-445.3" font-family="Times,serif" font-size="14.00">f31</text>
</g>
<!-- 26&#45;&gt;31 -->
<g id="edge6" class="edge">
<title>26&#45;&gt;31</title>
<path fill="none" stroke="black" d="M163.49,-488.17C198.15,-478.65 242.1,-466.57 271.97,-458.36"/>
<polygon fill="black" stroke="black" points="273.2,-461.65 281.91,-455.63 271.34,-454.9 273.2,-461.65"/>
</g>
<!-- 42 -->
<g id="node36" class="node">
<title>42</title>
<ellipse fill="none" stroke="black" cx="499.66" cy="-488" rx="27" ry="18"/>
<text text-anchor="middle" x="499.66" y="-484.3" font-family="Times,serif" font-size="14.00">f42</text>
</g>
<!-- 26&#45;&gt;42 -->
<g id="edge7" class="edge">
<title>26&#45;&gt;42</title>
<path fill="none" stroke="black" d="M132.28,-485.2C159.3,-465.28 206.59,-434.21 253.08,-422 299.46,-409.82 317.05,-402.77 360.97,-422 382.58,-431.46 376.77,-448.82 396.97,-461 417.05,-473.1 442.55,-479.85 462.99,-483.58"/>
<polygon fill="black" stroke="black" points="462.43,-487.04 472.87,-485.22 463.57,-480.13 462.43,-487.04"/>
</g>
<!-- 43 -->
<g id="node37" class="node">
<title>43</title>
<ellipse fill="none" stroke="black" cx="307.03" cy="-665" rx="27" ry="18"/>
<text text-anchor="middle" x="307.03" y="-661.3" font-family="Times,serif" font-size="14.00">f43</text>
</g>
<!-- 26&#45;&gt;43 -->
<g id="edge8" class="edge">
<title>26&#45;&gt;43</title>
<path fill="none" stroke="black" d="M125.41,-520.88C150.53,-548.47 201.88,-601.97 253.08,-638 259.79,-642.72 267.43,-647.11 274.78,-650.92"/>
<polygon fill="black" stroke="black" points="273.33,-654.11 283.85,-655.42 276.45,-647.84 273.33,-654.11"/>
</g>
<!-- 49 -->
<g id="node43" class="node">
<title>49</title>
<ellipse fill="none" stroke="black" cx="307.03" cy="-611" rx="27" ry="18"/>
<text text-anchor="middle" x="307.03" y="-607.3" font-family="Times,serif" font-size="14.00">f49</text>
</g>
<!-- 26&#45;&gt;49 -->
<g id="edge9" class="edge">
<title>26&#45;&gt;49</title>
<path fill="none" stroke="black" d="M139.03,-520.12C167.91,-536.77 213.25,-562.62 253.08,-584 260.37,-587.91 268.28,-592.02 275.72,-595.82"/>
<polygon fill="black" stroke="black" points="274.29,-599.02 284.79,-600.43 277.46,-592.78 274.29,-599.02"/>
</g>
<!-- 50 -->
<g id="node44" class="node">
<title>50</title>
<ellipse fill="none" stroke="black" cx="307.03" cy="-326" rx="27" ry="18"/>
<text text-anchor="middle" x="307.03" y="-322.3" font-family="Times,serif" font-size="14.00">f50</text>
</g>
<!-- 26&#45;&gt;50 -->
<g id="edge10" class="edge">
<title>26&#45;&gt;50</title>
<path fill="none" stroke="black" d="M129.1,-485.38C165.44,-452.65 243.23,-382.57 282.42,-347.26"/>
<polygon fill="black" stroke="black" points="285.09,-349.57 290.17,-340.28 280.4,-344.37 285.09,-349.57"/>
</g>
<!-- 53 -->
<g id="node47" class="node">
<title>53</title>
<ellipse fill="none" stroke="black" cx="307.03" cy="-557" rx="27" ry="18"/>
<text text-anchor="middle" x="307.03" y="-553.3" font-family="Times,serif" font-size="14.00">f53</text>
</g>
<!-- 26&#45;&gt;53 -->
<g id="edge11" class="edge">
<title>26&#45;&gt;53</title>
<path fill="none" stroke="black" d="M163.49,-517.83C198.15,-527.35 242.1,-539.43 271.97,-547.64"/>
<polygon fill="black" stroke="black" points="271.34,-551.1 281.91,-550.37 273.2,-544.35 271.34,-551.1"/>
</g>
<!-- 27 -->
<g id="node21" class="node">
<title>27</title>
<ellipse fill="none" stroke="black" cx="108.54" cy="-779" rx="27" ry="18"/>
<text text-anchor="middle" x="108.54" y="-775.3" font-family="Times,serif" font-size="14.00">f27</text>
</g>
<!-- 35 -->
<g id="node29" class="node">
<title>35</title>
<ellipse fill="none" stroke="black" cx="307.03" cy="-779" rx="27" ry="18"/>
<text text-anchor="middle" x="307.03" y="-775.3" font-family="Times,serif" font-size="14.00">f35</text>
</g>
<!-- 27&#45;&gt;35 -->
<g id="edge12" class="edge">
<title>27&#45;&gt;35</title>
<path fill="none" stroke="black" d="M135.63,-779C169.98,-779 230.56,-779 269.47,-779"/>
<polygon fill="black" stroke="black" points="269.83,-782.5 279.83,-779 269.83,-775.5 269.83,-782.5"/>
</g>
<!-- 28 -->
<g id="node22" class="node">
<title>28</title>
<ellipse fill="none" stroke="black" cx="499.66" cy="-126" rx="27" ry="18"/>
<text text-anchor="middle" x="499.66" y="-122.3" font-family="Times,serif" font-size="14.00">f28</text>
</g>
<!-- 28&#45;&gt;14 -->
<g id="edge13" class="edge">
<title>28&#45;&gt;14</title>
<path fill="none" stroke="black" d="M527.03,-126C552.32,-126 591.84,-126 627.59,-126"/>
<polygon fill="black" stroke="black" points="628.04,-129.5 638.04,-126 628.04,-122.5 628.04,-129.5"/>
</g>
<!-- 40 -->
<g id="node34" class="node">
<title>40</title>
<ellipse fill="none" stroke="black" cx="709.85" cy="-311" rx="27" ry="18"/>
<text text-anchor="middle" x="709.85" y="-307.3" font-family="Times,serif" font-size="14.00">f40</text>
</g>
<!-- 28&#45;&gt;40 -->
<g id="edge14" class="edge">
<title>28&#45;&gt;40</title>
<path fill="none" stroke="black" d="M526.61,-127.83C548.54,-130.49 579.88,-137 602.35,-153 649.9,-186.84 682.48,-249.07 698.15,-284.5"/>
<polygon fill="black" stroke="black" points="694.96,-285.92 702.12,-293.73 701.39,-283.16 694.96,-285.92"/>
</g>
<!-- 29 -->
<g id="node23" class="node">
<title>29</title>
<ellipse fill="none" stroke="black" cx="499.66" cy="-72" rx="27" ry="18"/>
<text text-anchor="middle" x="499.66" y="-68.3" font-family="Times,serif" font-size="14.00">f29</text>
</g>
<!-- 29&#45;&gt;14 -->
<g id="edge15" class="edge">
<title>29&#45;&gt;14</title>
<path fill="none" stroke="black" d="M525.36,-78.41C555.71,-86.28 608.23,-99.9 649.32,-110.56"/>
<polygon fill="black" stroke="black" points="648.67,-114.01 659.23,-113.13 650.43,-107.23 648.67,-114.01"/>
</g>
<!-- 44 -->
<g id="node38" class="node">
<title>44</title>
<ellipse fill="none" stroke="black" cx="709.85" cy="-72" rx="27" ry="18"/>
<text text-anchor="middle" x="709.85" y="-68.3" font-family="Times,serif" font-size="14.00">f44</text>
</g>
<!-- 29&#45;&gt;44 -->
<g id="edge16" class="edge">
<title>29&#45;&gt;44</title>
<path fill="none" stroke="black" d="M527.03,-72C563.87,-72 630.88,-72 672.45,-72"/>
<polygon fill="black" stroke="black" points="672.69,-75.5 682.69,-72 672.69,-68.5 672.69,-75.5"/>
</g>
<!-- 32 -->
<g id="node26" class="node">
<title>32</title>
<ellipse fill="none" stroke="black" cx="890.13" cy="-764" rx="27" ry="18"/>
<text text-anchor="middle" x="890.13" y="-760.3" font-family="Times,serif" font-size="14.00">f32</text>
</g>
<!-- 33 -->
<g id="node27" class="node">
<title>33</title>
<ellipse fill="none" stroke="black" cx="709.85" cy="-764" rx="27" ry="18"/>
<text text-anchor="middle" x="709.85" y="-760.3" font-family="Times,serif" font-size="14.00">f33</text>
</g>
<!-- 33&#45;&gt;32 -->
<g id="edge17" class="edge">
<title>33&#45;&gt;32</title>
<path fill="none" stroke="black" d="M737.15,-764C767.79,-764 818.57,-764 852.92,-764"/>
<polygon fill="black" stroke="black" points="853.01,-767.5 863.01,-764 853.01,-760.5 853.01,-767.5"/>
</g>
<!-- 69 -->
<g id="node61" class="node">
<title>69</title>
<ellipse fill="none" stroke="black" cx="890.13" cy="-642" rx="53.89" ry="18"/>
<text text-anchor="middle" x="890.13" y="-638.3" font-family="Times,serif" font-size="14.00">_memcpy</text>
</g>
<!-- 33&#45;&gt;69 -->
<g id="edge18" class="edge">
<title>33&#45;&gt;69</title>
<path fill="none" stroke="black" d="M733.87,-755.39C748.04,-749.65 766.32,-741.44 781.34,-732 811.91,-712.8 843.18,-685.69 864.11,-666.26"/>
<polygon fill="black" stroke="black" points="866.72,-668.62 871.61,-659.22 861.92,-663.51 866.72,-668.62"/>
</g>
<!-- 34 -->
<g id="node28" class="node">
<title>34</title>
<ellipse fill="none" stroke="black" cx="499.66" cy="-764" rx="27" ry="18"/>
<text text-anchor="middle" x="499.66" y="-760.3" font-family="Times,serif" font-size="14.00">f34</text>
</g>
<!-- 34&#45;&gt;33 -->
<g id="edge19" class="edge">
<title>34&#45;&gt;33</title>
<path fill="none" stroke="black" d="M527.03,-764C563.87,-764 630.88,-764 672.45,-764"/>
<polygon fill="black" stroke="black" points="672.69,-767.5 682.69,-764 672.69,-760.5 672.69,-767.5"/>
</g>
<!-- 35&#45;&gt;33 -->
<g id="edge20" class="edge">
<title>35&#45;&gt;33</title>
<path fill="none" stroke="black" d="M333.24,-783.32C351,-786.14 375.36,-789.55 396.97,-791 488.05,-797.12 511.77,-802.3 602.35,-791 627.24,-787.89 654.65,-780.86 675.44,-774.74"/>
<polygon fill="black" stroke="black" points="676.5,-778.08 685.06,-771.84 674.48,-771.38 676.5,-778.08"/>
</g>
<!-- 35&#45;&gt;34 -->
<g id="edge21" class="edge">
<title>35&#45;&gt;34</title>
<path fill="none" stroke="black" d="M334.13,-776.95C367.41,-774.33 425.1,-769.79 462.57,-766.84"/>
<polygon fill="black" stroke="black" points="462.87,-770.33 472.56,-766.05 462.32,-763.35 462.87,-770.33"/>
</g>
<!-- 37 -->
<g id="node31" class="node">
<title>37</title>
<ellipse fill="none" stroke="black" cx="499.66" cy="-1042" rx="27" ry="18"/>
<text text-anchor="middle" x="499.66" y="-1038.3" font-family="Times,serif" font-size="14.00">f37</text>
</g>
<!-- 36&#45;&gt;37 -->
<g id="edge22" class="edge">
<title>36&#45;&gt;37</title>
<path fill="none" stroke="black" d="M333.74,-1061.9C367.09,-1057.87 425.43,-1050.83 463.04,-1046.3"/>
<polygon fill="black" stroke="black" points="463.55,-1049.76 473.06,-1045.09 462.71,-1042.81 463.55,-1049.76"/>
</g>
<!-- 38 -->
<g id="node32" class="node">
<title>38</title>
<ellipse fill="none" stroke="black" cx="709.85" cy="-1088" rx="27" ry="18"/>
<text text-anchor="middle" x="709.85" y="-1084.3" font-family="Times,serif" font-size="14.00">f38</text>
</g>
<!-- 36&#45;&gt;38 -->
<g id="edge23" class="edge">
<title>36&#45;&gt;38</title>
<path fill="none" stroke="black" d="M334.02,-1066.49C403.41,-1070.47 593.19,-1081.36 672.87,-1085.94"/>
<polygon fill="black" stroke="black" points="672.73,-1089.43 682.92,-1086.51 673.13,-1082.44 672.73,-1089.43"/>
</g>
<!-- 37&#45;&gt;38 -->
<g id="edge24" class="edge">
<title>37&#45;&gt;38</title>
<path fill="none" stroke="black" d="M525.77,-1047.55C562.84,-1055.74 632.32,-1071.09 674.21,-1080.35"/>
<polygon fill="black" stroke="black" points="673.45,-1083.76 683.97,-1082.5 674.96,-1076.93 673.45,-1083.76"/>
</g>
<!-- 39 -->
<g id="node33" class="node">
<title>39</title>
<ellipse fill="none" stroke="black" cx="709.85" cy="-1034" rx="27" ry="18"/>
<text text-anchor="middle" x="709.85" y="-1030.3" font-family="Times,serif" font-size="14.00">f39</text>
</g>
<!-- 37&#45;&gt;39 -->
<g id="edge25" class="edge">
<title>37&#45;&gt;39</title>
<path fill="none" stroke="black" d="M527.03,-1040.99C563.87,-1039.57 630.88,-1037 672.45,-1035.4"/>
<polygon fill="black" stroke="black" points="672.84,-1038.89 682.69,-1035 672.57,-1031.89 672.84,-1038.89"/>
</g>
<!-- 41 -->
<g id="node35" class="node">
<title>41</title>
<ellipse fill="none" stroke="black" cx="890.13" cy="-307" rx="27" ry="18"/>
<text text-anchor="middle" x="890.13" y="-303.3" font-family="Times,serif" font-size="14.00">f41</text>
</g>
<!-- 40&#45;&gt;41 -->
<g id="edge26" class="edge">
<title>40&#45;&gt;41</title>
<path fill="none" stroke="black" d="M737.15,-310.41C767.79,-309.72 818.57,-308.58 852.92,-307.81"/>
<polygon fill="black" stroke="black" points="853.09,-311.31 863.01,-307.59 852.93,-304.31 853.09,-311.31"/>
</g>
<!-- 67 -->
<g id="node59" class="node">
<title>67</title>
<ellipse fill="none" stroke="black" cx="890.13" cy="-361" rx="51.99" ry="18"/>
<text text-anchor="middle" x="890.13" y="-357.3" font-family="Times,serif" font-size="14.00">_memset</text>
</g>
<!-- 40&#45;&gt;67 -->
<g id="edge27" class="edge">
<title>40&#45;&gt;67</title>
<path fill="none" stroke="black" d="M734.89,-317.74C761.54,-325.22 805.24,-337.47 839.34,-347.04"/>
<polygon fill="black" stroke="black" points="838.56,-350.45 849.13,-349.78 840.45,-343.71 838.56,-350.45"/>
</g>
<!-- 40&#45;&gt;69 -->
<g id="edge28" class="edge">
<title>40&#45;&gt;69</title>
<path fill="none" stroke="black" d="M716.84,-328.61C736.7,-386.72 800.1,-569.89 817.34,-592 826.44,-603.66 839,-613.69 851.07,-621.63"/>
<polygon fill="black" stroke="black" points="849.39,-624.71 859.72,-627.04 853.1,-618.77 849.39,-624.71"/>
</g>
<!-- 43&#45;&gt;42 -->
<g id="edge29" class="edge">
<title>43&#45;&gt;42</title>
<path fill="none" stroke="black" d="M331.9,-657.65C342.15,-653.4 353.47,-647.06 360.97,-638 397.31,-594.14 356.19,-554.77 396.97,-515 414.17,-498.23 440.52,-491.57 462.1,-489.05"/>
<polygon fill="black" stroke="black" points="462.6,-492.52 472.24,-488.12 461.96,-485.55 462.6,-492.52"/>
</g>
<!-- 43&#45;&gt;69 -->
<g id="edge30" class="edge">
<title>43&#45;&gt;69</title>
<path fill="none" stroke="black" d="M330.21,-674.4C347.92,-681.37 373.55,-690.28 396.97,-694 565.69,-720.81 614.81,-732.07 781.34,-694 807.63,-687.99 834.97,-674.71 855.54,-663.07"/>
<polygon fill="black" stroke="black" points="857.31,-666.09 864.2,-658.04 853.79,-660.04 857.31,-666.09"/>
</g>
<!-- 45 -->
<g id="node39" class="node">
<title>45</title>
<ellipse fill="none" stroke="black" cx="890.13" cy="-126" rx="27" ry="18"/>
<text text-anchor="middle" x="890.13" y="-122.3" font-family="Times,serif" font-size="14.00">f45</text>
</g>
<!-- 44&#45;&gt;45 -->
<g id="edge31" class="edge">
<title>44&#45;&gt;45</title>
<path fill="none" stroke="black" d="M734.89,-79.28C765.95,-88.69 820.18,-105.12 855.37,-115.77"/>
<polygon fill="black" stroke="black" points="854.6,-119.2 865.19,-118.75 856.63,-112.5 854.6,-119.2"/>
</g>
<!-- 46 -->
<g id="node40" class="node">
<title>46</title>
<ellipse fill="none" stroke="black" cx="890.13" cy="-72" rx="27" ry="18"/>
<text text-anchor="middle" x="890.13" y="-68.3" font-family="Times,serif" font-size="14.00">f46</text>
</g>
<!-- 44&#45;&gt;46 -->
<g id="edge32" class="edge">
<title>44&#45;&gt;46</title>
<path fill="none" stroke="black" d="M737.15,-72C767.79,-72 818.57,-72 852.92,-72"/>
<polygon fill="black" stroke="black" points="853.01,-75.5 863.01,-72 853.01,-68.5 853.01,-75.5"/>
</g>
<!-- 47 -->
<g id="node41" class="node">
<title>47</title>
<ellipse fill="none" stroke="black" cx="890.13" cy="-18" rx="27" ry="18"/>
<text text-anchor="middle" x="890.13" y="-14.3" font-family="Times,serif" font-size="14.00">f47</text>
</g>
<!-- 44&#45;&gt;47 -->
<g id="edge33" class="edge">
<title>44&#45;&gt;47</title>
<path fill="none" stroke="black" d="M734.89,-64.72C765.95,-55.31 820.18,-38.88 855.37,-28.23"/>
<polygon fill="black" stroke="black" points="856.63,-31.5 865.19,-25.25 854.6,-24.8 856.63,-31.5"/>
</g>
<!-- 44&#45;&gt;67 -->
<g id="edge34" class="edge">
<title>44&#45;&gt;67</title>
<path fill="none" stroke="black" d="M736.45,-75.31C751.8,-78.67 770.4,-85.43 781.34,-99 847.66,-181.26 750.77,-251.94 817.34,-334 822.07,-339.83 828.2,-344.4 834.88,-347.99"/>
<polygon fill="black" stroke="black" points="833.71,-351.3 844.25,-352.29 836.62,-344.94 833.71,-351.3"/>
</g>
<!-- 44&#45;&gt;69 -->
<g id="edge35" class="edge">
<title>44&#45;&gt;69</title>
<path fill="none" stroke="black" d="M736.83,-75.02C752.32,-78.27 770.95,-85.01 781.34,-99 846.85,-187.18 762.98,-496.55 817.34,-592 824.48,-604.53 836.2,-614.65 848.12,-622.41"/>
<polygon fill="black" stroke="black" points="846.4,-625.47 856.77,-627.65 850.03,-619.48 846.4,-625.47"/>
</g>
<!-- 48 -->
<g id="node42" class="node">
<title>48</title>
<ellipse fill="none" stroke="black" cx="499.66" cy="-634" rx="27" ry="18"/>
<text text-anchor="middle" x="499.66" y="-630.3" font-family="Times,serif" font-size="14.00">f48</text>
</g>
<!-- 48&#45;&gt;56 -->
<g id="edge36" class="edge">
<title>48&#45;&gt;56</title>
<path fill="none" stroke="black" d="M525.73,-629.32C547.12,-624.59 578.15,-615.97 602.35,-602 621.15,-591.15 619.89,-580.42 638.35,-569 649.59,-562.05 662.9,-556.39 674.92,-552.08"/>
<polygon fill="black" stroke="black" points="676.29,-555.31 684.63,-548.78 674.03,-548.68 676.29,-555.31"/>
</g>
<!-- 48&#45;&gt;69 -->
<g id="edge37" class="edge">
<title>48&#45;&gt;69</title>
<path fill="none" stroke="black" d="M526.75,-634.54C587.4,-635.79 739.29,-638.91 825.95,-640.7"/>
<polygon fill="black" stroke="black" points="826.11,-644.2 836.18,-640.91 826.26,-637.2 826.11,-644.2"/>
</g>
<!-- 70 -->
<g id="node62" class="node">
<title>70</title>
<ellipse fill="none" stroke="black" cx="709.85" cy="-596" rx="63.09" ry="18"/>
<text text-anchor="middle" x="709.85" y="-592.3" font-family="Times,serif" font-size="14.00">_memmove</text>
</g>
<!-- 48&#45;&gt;70 -->
<g id="edge38" class="edge">
<title>48&#45;&gt;70</title>
<path fill="none" stroke="black" d="M525.77,-629.42C555.38,-624.01 605.68,-614.83 646.07,-607.46"/>
<polygon fill="black" stroke="black" points="646.89,-610.87 656.1,-605.63 645.64,-603.98 646.89,-610.87"/>
</g>
<!-- 49&#45;&gt;48 -->
<g id="edge39" class="edge">
<title>49&#45;&gt;48</title>
<path fill="none" stroke="black" d="M333.74,-614.1C367.09,-618.13 425.43,-625.17 463.04,-629.7"/>
<polygon fill="black" stroke="black" points="462.71,-633.19 473.06,-630.91 463.55,-626.24 462.71,-633.19"/>
</g>
<!-- 49&#45;&gt;55 -->
<g id="edge40" class="edge">
<title>49&#45;&gt;55</title>
<path fill="none" stroke="black" d="M332.4,-604.35C342.88,-600.22 354.25,-593.78 360.97,-584 446.84,-459.16 317.27,-373.86 396.97,-245 411.73,-221.14 438.86,-204.46 461.39,-193.98"/>
<polygon fill="black" stroke="black" points="462.98,-197.1 470.71,-189.86 460.15,-190.7 462.98,-197.1"/>
</g>
<!-- 49&#45;&gt;56 -->
<g id="edge41" class="edge">
<title>49&#45;&gt;56</title>
<path fill="none" stroke="black" d="M333.77,-608.26C385.13,-602.59 503.86,-588.46 602.35,-569 626.8,-564.17 654.02,-557.24 674.83,-551.61"/>
<polygon fill="black" stroke="black" points="675.76,-554.98 684.48,-548.97 673.91,-548.23 675.76,-554.98"/>
</g>
<!-- 49&#45;&gt;69 -->
<g id="edge42" class="edge">
<title>49&#45;&gt;69</title>
<path fill="none" stroke="black" d="M329.4,-621.31C339.15,-626.16 350.76,-632.15 360.97,-638 377.45,-647.44 378.75,-655.68 396.97,-661 551.44,-706.13 744.77,-674.64 836.35,-654.79"/>
<polygon fill="black" stroke="black" points="837.21,-658.19 846.22,-652.61 835.7,-651.35 837.21,-658.19"/>
</g>
<!-- 50&#45;&gt;4 -->
<g id="edge43" class="edge">
<title>50&#45;&gt;4</title>
<path fill="none" stroke="black" d="M331.74,-333.45C349.62,-339 374.77,-346.69 396.97,-353 413.56,-357.72 431.74,-362.63 448.09,-366.95"/>
<polygon fill="black" stroke="black" points="447.43,-370.39 458,-369.55 449.21,-363.62 447.43,-370.39"/>
</g>
<!-- 50&#45;&gt;9 -->
<g id="edge44" class="edge">
<title>50&#45;&gt;9</title>
<path fill="none" stroke="black" d="M334.13,-326C363.77,-326 412.79,-326 449.62,-326"/>
<polygon fill="black" stroke="black" points="449.67,-329.5 459.67,-326 449.67,-322.5 449.67,-329.5"/>
</g>
<!-- 50&#45;&gt;13 -->
<g id="edge45" class="edge">
<title>50&#45;&gt;13</title>
<path fill="none" stroke="black" d="M331.74,-318.55C349.62,-313 374.77,-305.31 396.97,-299 411.17,-294.96 426.55,-290.78 440.94,-286.95"/>
<polygon fill="black" stroke="black" points="441.94,-290.3 450.72,-284.36 440.15,-283.54 441.94,-290.3"/>
</g>
<!-- 51 -->
<g id="node45" class="node">
<title>51</title>
<ellipse fill="none" stroke="black" cx="499.66" cy="-434" rx="27" ry="18"/>
<text text-anchor="middle" x="499.66" y="-430.3" font-family="Times,serif" font-size="14.00">f51</text>
</g>
<!-- 50&#45;&gt;51 -->
<g id="edge46" class="edge">
<title>50&#45;&gt;51</title>
<path fill="none" stroke="black" d="M320.84,-341.53C336.8,-359.86 365.8,-390.01 396.97,-407 417.32,-418.09 442.48,-424.82 462.68,-428.79"/>
<polygon fill="black" stroke="black" points="462.28,-432.27 472.74,-430.62 463.53,-425.39 462.28,-432.27"/>
</g>
<!-- 50&#45;&gt;55 -->
<g id="edge47" class="edge">
<title>50&#45;&gt;55</title>
<path fill="none" stroke="black" d="M316.84,-309.05C330.63,-284.16 359.64,-237.9 396.97,-212 414.71,-199.69 437.4,-191.96 456.85,-187.18"/>
<polygon fill="black" stroke="black" points="457.7,-190.58 466.68,-184.95 456.15,-183.75 457.7,-190.58"/>
</g>
<!-- 50&#45;&gt;56 -->
<g id="edge48" class="edge">
<title>50&#45;&gt;56</title>
<path fill="none" stroke="black" d="M319.65,-309.75C334.84,-290.08 363.47,-257.97 396.97,-245 482.1,-212.05 527.71,-192.46 602.35,-245 608.17,-249.09 674.7,-442.2 699.55,-514.79"/>
<polygon fill="black" stroke="black" points="696.36,-516.27 702.91,-524.59 702.98,-514 696.36,-516.27"/>
</g>
<!-- 52&#45;&gt;55 -->
<g id="edge49" class="edge">
<title>52&#45;&gt;55</title>
<path fill="none" stroke="black" d="M333.74,-160.1C365.14,-163.89 418.69,-170.35 456.23,-174.88"/>
<polygon fill="black" stroke="black" points="456.02,-178.38 466.37,-176.1 456.86,-171.43 456.02,-178.38"/>
</g>
<!-- 54 -->
<g id="node48" class="node">
<title>54</title>
<ellipse fill="none" stroke="black" cx="890.13" cy="-565" rx="45.49" ry="18"/>
<text text-anchor="middle" x="890.13" y="-561.3" font-family="Times,serif" font-size="14.00">_malloc</text>
</g>
<!-- 62 -->
<g id="node55" class="node">
<title>62</title>
<ellipse fill="none" stroke="black" cx="1128.92" cy="-811" rx="90.18" ry="18"/>
<text text-anchor="middle" x="1128.92" y="-807.3" font-family="Times,serif" font-size="14.00">___errno_location</text>
</g>
<!-- 54&#45;&gt;62 -->
<g id="edge50" class="edge">
<title>54&#45;&gt;62</title>
<path fill="none" stroke="black" d="M916.83,-579.59C931.37,-588.61 949.32,-601.11 962.93,-615 983.12,-635.6 981.18,-646.26 998.93,-669 1032.64,-712.2 1076.3,-758.52 1103.19,-786.11"/>
<polygon fill="black" stroke="black" points="1100.81,-788.69 1110.31,-793.38 1105.82,-783.79 1100.81,-788.69"/>
</g>
<!-- 68 -->
<g id="node60" class="node">
<title>68</title>
<ellipse fill="none" stroke="black" cx="1128.92" cy="-565" rx="36" ry="18"/>
<text text-anchor="middle" x="1128.92" y="-561.3" font-family="Times,serif" font-size="14.00">_sbrk</text>
</g>
<!-- 54&#45;&gt;68 -->
<g id="edge51" class="edge">
<title>54&#45;&gt;68</title>
<path fill="none" stroke="black" d="M935.67,-565C977.75,-565 1040.55,-565 1082.81,-565"/>
<polygon fill="black" stroke="black" points="1082.83,-568.5 1092.83,-565 1082.83,-561.5 1082.83,-568.5"/>
</g>
<!-- 56&#45;&gt;54 -->
<g id="edge52" class="edge">
<title>56&#45;&gt;54</title>
<path fill="none" stroke="black" d="M736.39,-545.3C762.48,-548.66 803.74,-553.98 836.8,-558.25"/>
<polygon fill="black" stroke="black" points="836.41,-561.73 846.77,-559.53 837.3,-554.78 836.41,-561.73"/>
</g>
<!-- 56&#45;&gt;67 -->
<g id="edge53" class="edge">
<title>56&#45;&gt;67</title>
<path fill="none" stroke="black" d="M725.44,-527.19C756.16,-496 827.75,-423.32 865.25,-385.24"/>
<polygon fill="black" stroke="black" points="867.75,-387.69 872.28,-378.11 862.77,-382.78 867.75,-387.69"/>
</g>
<!-- 58 -->
<g id="node51" class="node">
<title>58</title>
<ellipse fill="none" stroke="black" cx="709.85" cy="-980" rx="27" ry="18"/>
<text text-anchor="middle" x="709.85" y="-976.3" font-family="Times,serif" font-size="14.00">f58</text>
</g>
<!-- 58&#45;&gt;6 -->
<g id="edge54" class="edge">
<title>58&#45;&gt;6</title>
<path fill="none" stroke="black" d="M737.15,-980C758.64,-980 790.04,-980 818.73,-980"/>
<polygon fill="black" stroke="black" points="818.74,-983.5 828.74,-980 818.74,-976.5 818.74,-983.5"/>
</g>
<!-- 61 -->
<g id="node54" class="node">
<title>61</title>
<ellipse fill="none" stroke="black" cx="890.13" cy="-926" rx="27" ry="18"/>
<text text-anchor="middle" x="890.13" y="-922.3" font-family="Times,serif" font-size="14.00">f61</text>
</g>
<!-- 58&#45;&gt;61 -->
<g id="edge55" class="edge">
<title>58&#45;&gt;61</title>
<path fill="none" stroke="black" d="M734.89,-972.72C765.95,-963.31 820.18,-946.88 855.37,-936.23"/>
<polygon fill="black" stroke="black" points="856.63,-939.5 865.19,-933.25 854.6,-932.8 856.63,-939.5"/>
</g>
<!-- 59 -->
<g id="node52" class="node">
<title>59</title>
<ellipse fill="none" stroke="black" cx="499.66" cy="-864" rx="27" ry="18"/>
<text text-anchor="middle" x="499.66" y="-860.3" font-family="Times,serif" font-size="14.00">f59</text>
</g>
<!-- 59&#45;&gt;11 -->
<g id="edge56" class="edge">
<title>59&#45;&gt;11</title>
<path fill="none" stroke="black" d="M525.77,-858.45C555.75,-851.83 606.91,-840.52 647.55,-831.54"/>
<polygon fill="black" stroke="black" points="648.36,-834.95 657.36,-829.38 646.84,-828.12 648.36,-834.95"/>
</g>
<!-- 63 -->
<g id="node56" class="node">
<title>63</title>
<ellipse fill="none" stroke="black" cx="709.85" cy="-872" rx="27" ry="18"/>
<text text-anchor="middle" x="709.85" y="-868.3" font-family="Times,serif" font-size="14.00">f63</text>
</g>
<!-- 59&#45;&gt;63 -->
<g id="edge57" class="edge">
<title>59&#45;&gt;63</title>
<path fill="none" stroke="black" d="M527.03,-865.01C563.87,-866.43 630.88,-869 672.45,-870.6"/>
<polygon fill="black" stroke="black" points="672.57,-874.11 682.69,-871 672.84,-867.11 672.57,-874.11"/>
</g>
<!-- 60 -->
<g id="node53" class="node">
<title>60</title>
<ellipse fill="none" stroke="black" cx="709.85" cy="-926" rx="27" ry="18"/>
<text text-anchor="middle" x="709.85" y="-922.3" font-family="Times,serif" font-size="14.00">f60</text>
</g>
<!-- 60&#45;&gt;12 -->
<g id="edge58" class="edge">
<title>60&#45;&gt;12</title>
<path fill="none" stroke="black" d="M734.89,-918.72C760.07,-911.09 800.47,-898.85 833.61,-888.82"/>
<polygon fill="black" stroke="black" points="834.63,-892.16 843.19,-885.92 832.6,-885.46 834.63,-892.16"/>
</g>
<!-- 60&#45;&gt;61 -->
<g id="edge59" class="edge">
<title>60&#45;&gt;61</title>
<path fill="none" stroke="black" d="M737.15,-926C767.79,-926 818.57,-926 852.92,-926"/>
<polygon fill="black" stroke="black" points="853.01,-929.5 863.01,-926 853.01,-922.5 853.01,-929.5"/>
</g>
<!-- 61&#45;&gt;62 -->
<g id="edge60" class="edge">
<title>61&#45;&gt;62</title>
<path fill="none" stroke="black" d="M914.73,-918C928.89,-912.99 947.15,-906.14 962.93,-899 1007.54,-878.82 1056.85,-851.87 1089.84,-833.14"/>
<polygon fill="black" stroke="black" points="1091.74,-836.08 1098.69,-828.08 1088.27,-830 1091.74,-836.08"/>
</g>
<!-- 63&#45;&gt;15 -->
<g id="edge61" class="edge">
<title>63&#45;&gt;15</title>
<path fill="none" stroke="black" d="M734.89,-864.72C760.07,-857.09 800.47,-844.85 833.61,-834.82"/>
<polygon fill="black" stroke="black" points="834.63,-838.16 843.19,-831.92 832.6,-831.46 834.63,-838.16"/>
</g>
<!-- 63&#45;&gt;61 -->
<g id="edge62" class="edge">
<title>63&#45;&gt;61</title>
<path fill="none" stroke="black" d="M734.89,-879.28C765.95,-888.69 820.18,-905.12 855.37,-915.77"/>
<polygon fill="black" stroke="black" points="854.6,-919.2 865.19,-918.75 856.63,-912.5 854.6,-919.2"/>
</g>
<!-- 64 -->
<g id="node57" class="node">
<title>64</title>
<ellipse fill="none" stroke="black" cx="108.54" cy="-926" rx="40.89" ry="18"/>
<text text-anchor="middle" x="108.54" y="-922.3" font-family="Times,serif" font-size="14.00">_fflush</text>
</g>
<!-- 64&#45;&gt;5 -->
<g id="edge63" class="edge">
<title>64&#45;&gt;5</title>
<path fill="none" stroke="black" d="M143.77,-935.41C176.43,-944.38 225.81,-957.96 261.52,-967.77"/>
<polygon fill="black" stroke="black" points="260.63,-971.15 271.2,-970.43 262.49,-964.4 260.63,-971.15"/>
</g>
<!-- 64&#45;&gt;8 -->
<g id="edge64" class="edge">
<title>64&#45;&gt;8</title>
<path fill="none" stroke="black" d="M149.78,-926C176.51,-926 212.16,-926 242.67,-926"/>
<polygon fill="black" stroke="black" points="242.79,-929.5 252.79,-926 242.79,-922.5 242.79,-929.5"/>
</g>
<!-- 64&#45;&gt;64 -->
<g id="edge65" class="edge">
<title>64&#45;&gt;64</title>
<path fill="none" stroke="black" d="M78.02,-938.54C63.18,-949.87 73.35,-962 108.54,-962 135.48,-962 147.76,-954.89 145.37,-946.47"/>
<polygon fill="black" stroke="black" points="148.03,-944.19 139.06,-938.54 142.55,-948.55 148.03,-944.19"/>
</g>
<!-- 65 -->
<g id="node58" class="node">
<title>65</title>
<ellipse fill="none" stroke="black" cx="307.03" cy="-872" rx="27" ry="18"/>
<text text-anchor="middle" x="307.03" y="-868.3" font-family="Times,serif" font-size="14.00">f65</text>
</g>
<!-- 64&#45;&gt;65 -->
<g id="edge66" class="edge">
<title>64&#45;&gt;65</title>
<path fill="none" stroke="black" d="M143.77,-916.59C179.69,-906.72 235.85,-891.29 271.78,-881.41"/>
<polygon fill="black" stroke="black" points="273.08,-884.69 281.79,-878.66 271.22,-877.94 273.08,-884.69"/>
</g>
<!-- 68&#45;&gt;1 -->
<g id="edge67" class="edge">
<title>68&#45;&gt;1</title>
<path fill="none" stroke="black" d="M1158.19,-575.52C1190.79,-587.35 1246.14,-606.53 1294.9,-619 1316.57,-624.54 1340.34,-629.45 1362.23,-633.52"/>
<polygon fill="black" stroke="black" points="1361.68,-636.97 1372.14,-635.32 1362.93,-630.09 1361.68,-636.97"/>
</g>
<!-- 68&#45;&gt;2 -->
<g id="edge68" class="edge">
<title>68&#45;&gt;2</title>
<path fill="none" stroke="black" d="M1164.23,-567.99C1208.67,-571.87 1287.78,-578.77 1349.82,-584.18"/>
<polygon fill="black" stroke="black" points="1349.75,-587.69 1360.01,-585.07 1350.35,-580.71 1349.75,-587.69"/>
</g>
<!-- 68&#45;&gt;3 -->
<g id="edge69" class="edge">
<title>68&#45;&gt;3</title>
<path fill="none" stroke="black" d="M1164.23,-562.01C1199.72,-558.91 1257.34,-553.89 1310.7,-549.23"/>
<polygon fill="black" stroke="black" points="1311.31,-552.69 1320.96,-548.34 1310.7,-545.72 1311.31,-552.69"/>
</g>
<!-- 68&#45;&gt;7 -->
<g id="edge70" class="edge">
<title>68&#45;&gt;7</title>
<path fill="none" stroke="black" d="M1158.19,-554.48C1190.79,-542.65 1246.14,-523.47 1294.9,-511 1319.91,-504.6 1347.71,-499.05 1372.2,-494.67"/>
<polygon fill="black" stroke="black" points="1372.87,-498.1 1382.11,-492.93 1371.66,-491.21 1372.87,-498.1"/>
</g>
<!-- 69&#45;&gt;10 -->
<g id="edge71" class="edge">
<title>69&#45;&gt;10</title>
<path fill="none" stroke="black" d="M944.27,-642C957.69,-642 972.74,-642 988.3,-642"/>
<polygon fill="black" stroke="black" points="988.58,-645.5 998.58,-642 988.58,-638.5 988.58,-645.5"/>
</g>
<!-- 70&#45;&gt;69 -->
<g id="edge72" class="edge">
<title>70&#45;&gt;69</title>
<path fill="none" stroke="black" d="M757.22,-607.97C781.73,-614.29 811.88,-622.07 837.16,-628.59"/>
<polygon fill="black" stroke="black" points="836.4,-632.01 846.95,-631.12 838.15,-625.23 836.4,-632.01"/>
</g>
<!-- 74 -->
<g id="node63" class="node">
<title>74</title>
<ellipse fill="none" stroke="black" cx="108.54" cy="-126" rx="27" ry="18"/>
<text text-anchor="middle" x="108.54" y="-122.3" font-family="Times,serif" font-size="14.00">f74</text>
</g>
<!-- 74&#45;&gt;0 -->
<g id="edge73" class="edge">
<title>74&#45;&gt;0</title>
<path fill="none" stroke="black" d="M134.4,-120.12C156.26,-114.87 188.88,-106.81 217.08,-99 233.41,-94.47 251.31,-89.12 266.74,-84.38"/>
<polygon fill="black" stroke="black" points="267.96,-87.66 276.48,-81.36 265.9,-80.97 267.96,-87.66"/>
</g>
<!-- 75 -->
<g id="node64" class="node">
<title>75</title>
<ellipse fill="none" stroke="black" cx="108.54" cy="-72" rx="27" ry="18"/>
<text text-anchor="middle" x="108.54" y="-68.3" font-family="Times,serif" font-size="14.00">f75</text>
</g>
<!-- 75&#45;&gt;0 -->
<g id="edge74" class="edge">
<title>75&#45;&gt;0</title>
<path fill="none" stroke="black" d="M135.63,-72C167.5,-72 221.95,-72 260.72,-72"/>
<polygon fill="black" stroke="black" points="261.2,-75.5 271.2,-72 261.2,-68.5 261.2,-75.5"/>
</g>
<!-- 76 -->
<g id="node65" class="node">
<title>76</title>
<ellipse fill="none" stroke="black" cx="108.54" cy="-18" rx="27" ry="18"/>
<text text-anchor="middle" x="108.54" y="-14.3" font-family="Times,serif" font-size="14.00">f76</text>
</g>
<!-- 76&#45;&gt;0 -->
<g id="edge75" class="edge">
<title>76&#45;&gt;0</title>
<path fill="none" stroke="black" d="M134.4,-23.88C156.26,-29.13 188.88,-37.19 217.08,-45 233.41,-49.53 251.31,-54.88 266.74,-59.62"/>
<polygon fill="black" stroke="black" points="265.9,-63.03 276.48,-62.64 267.96,-56.34 265.9,-63.03"/>
</g>
<!-- \n -->
<g id="node66" class="node">
<title>\n</title>
<ellipse fill="none" stroke="black" cx="108.54" cy="-1119" rx="27" ry="18"/>
</g>
</g>
</svg>
